<svg width="137" height="42" viewBox="0 0 137 42" fill="none" xmlns="http://www.w3.org/2000/svg">
<path d="M47.2695 40.48C47.4295 40.48 47.5895 40.48 47.7495 40.48V40.88C47.0029 40.9867 46.1629 41.04 45.2295 41.04C44.3229 41.04 43.1895 40.84 41.8295 40.44C40.4962 40.04 39.2829 39.2933 38.1895 38.2C35.9495 35.96 34.5895 33.0533 34.1095 29.48L31.6695 11.68L23.3495 30.48C22.6029 32.1067 22.1495 33.4667 21.9895 34.56H21.5895L11.2295 12.04L9.46953 31.92C9.4162 32.3733 9.54953 32.7733 9.86953 33.12C10.2162 33.4667 10.5895 33.64 10.9895 33.64H11.6295V34H3.86953V33.6H4.50953C5.22953 33.6 5.8562 33.3867 6.38953 32.96C6.94953 32.5067 7.2962 31.92 7.42953 31.2L9.94953 9.36C7.60286 4.74667 4.78953 2.44 1.50953 2.44C1.2162 2.44 0.909531 2.45333 0.589531 2.48V2.08C1.30953 1.89333 1.8962 1.8 2.34953 1.8C2.80286 1.8 3.2962 1.82666 3.82953 1.88C4.36286 1.90667 4.98953 2.02667 5.70953 2.24C6.42953 2.45333 7.10953 2.77333 7.74953 3.2C8.38953 3.6 8.94953 4.02666 9.42953 4.48C9.90953 4.90666 10.3629 5.38666 10.7895 5.92C11.5095 6.88 12.0829 7.8 12.5095 8.68L22.1495 29.56L32.9095 5.44H33.2695L36.9895 29.12C37.5495 32.8533 38.7495 35.68 40.5895 37.6C42.4562 39.52 44.6829 40.48 47.2695 40.48ZM46.3761 9.48C49.2294 6.78666 52.9228 5.44 57.4561 5.44C62.0161 5.44 65.7228 6.78666 68.5761 9.48C71.4294 12.1467 72.8561 15.6533 72.8561 20C72.8561 24.3467 71.4294 27.8667 68.5761 30.56C65.7228 33.2267 62.0161 34.56 57.4561 34.56C52.9228 34.56 49.2294 33.2267 46.3761 30.56C43.5228 27.8667 42.0961 24.3467 42.0961 20C42.0961 15.6533 43.5228 12.1467 46.3761 9.48ZM48.5361 29.68C50.8028 32.1333 53.7761 33.36 57.4561 33.36C61.1361 33.36 64.0961 32.1333 66.3361 29.68C68.6028 27.2267 69.7361 24 69.7361 20C69.7361 16 68.6028 12.7733 66.3361 10.32C64.0961 7.86667 61.1361 6.64 57.4561 6.64C53.7761 6.64 50.8028 7.86667 48.5361 10.32C46.2961 12.7733 45.1761 16 45.1761 20C45.1761 24 46.2961 27.2267 48.5361 29.68ZM115.821 40.08C113.688 40.7467 111.768 40.8667 110.061 40.44C108.274 39.96 106.728 39.2133 105.421 38.2C104.168 37.1867 102.888 35.9733 101.581 34.56L80.5011 11.2V31.2C80.5278 32.1333 80.9411 32.8267 81.7411 33.28C82.1144 33.4933 82.5144 33.6 82.9411 33.6H83.7011V34H75.4611V33.6H76.2211C76.8878 33.6 77.4611 33.3733 77.9411 32.92C78.4211 32.44 78.6611 31.8533 78.6611 31.16V9.2C78.5278 9.01333 78.2611 8.66667 77.8611 8.16C77.4611 7.62667 77.1278 7.2 76.8611 6.88C76.5944 6.56 76.2344 6.14666 75.7811 5.64C75.3278 5.10667 74.9011 4.68 74.5011 4.36C74.1278 4.04 73.6878 3.66667 73.1811 3.24C72.3811 2.62666 71.5278 2.18666 70.6211 1.92C69.7144 1.65333 68.9544 1.52 68.3411 1.52C67.7011 1.52 67.0211 1.62667 66.3011 1.84L66.1411 1.44C67.4211 0.906665 68.6611 0.639998 69.8611 0.639998C71.0344 0.639998 72.0478 0.786665 72.9011 1.08C73.7544 1.34667 74.6744 1.84 75.6611 2.56C76.6478 3.28 77.4478 3.94666 78.0611 4.56C78.7011 5.17333 79.4611 5.97333 80.3411 6.96L100.501 29.36V8.84C100.474 8.14667 100.221 7.57333 99.7411 7.12C99.2611 6.64 98.6878 6.4 98.0211 6.4H97.2611V6H105.501V6.4H104.781C104.114 6.4 103.541 6.64 103.061 7.12C102.581 7.57333 102.328 8.13333 102.301 8.8V31.4C102.568 31.6933 102.941 32.1333 103.421 32.72C103.928 33.3067 104.274 33.72 104.461 33.96C104.674 34.2 104.981 34.5467 105.381 35C105.781 35.4533 106.114 35.8 106.381 36.04C106.674 36.3067 107.021 36.6267 107.421 37C107.848 37.4 108.234 37.7067 108.581 37.92C108.954 38.16 109.368 38.4267 109.821 38.72C110.461 39.0933 111.181 39.3733 111.981 39.56C112.808 39.7467 113.474 39.84 113.981 39.84C114.514 39.84 115.074 39.7867 115.661 39.68L115.821 40.08ZM135.894 33.6H136.214V34H127.214V33.6H127.574C128.134 33.6 128.547 33.4267 128.814 33.08C129.107 32.7067 129.254 32.36 129.254 32.04C129.254 31.72 129.201 31.4 129.094 31.08L126.534 24.28H115.734L113.054 31.12C112.947 31.44 112.894 31.76 112.894 32.08C112.894 32.3733 113.027 32.7067 113.294 33.08C113.587 33.4267 114.014 33.6 114.574 33.6H114.934V34H106.894V33.6H107.254C107.921 33.6 108.574 33.3867 109.214 32.96C109.854 32.5333 110.374 31.9067 110.774 31.08L119.814 9.56C120.801 7.4 121.294 6.02667 121.294 5.44H121.654L132.374 31.08C132.747 31.9067 133.254 32.5333 133.894 32.96C134.534 33.3867 135.201 33.6 135.894 33.6ZM116.214 23.08H126.054L121.254 10.24L116.214 23.08Z" fill="#E4D01C"/>
</svg>
